<svg width="720" height="720" viewBox="0 0 720 720" fill="none" xmlns="http://www.w3.org/2000/svg">
<path fill-rule="evenodd" clip-rule="evenodd" d="M56 0C25.0721 0 0 25.0721 0 56V664C0 694.928 25.0721 720 56 720H442C442 691.295 459.035 666.568 483.547 655.378C479.357 646.986 477 637.518 477 627.5C477 592.982 504.982 565 539.5 565C541.695 565 543.864 565.113 546 565.334C546.09 529.788 574.933 501 610.5 501C617.71 501 624.643 502.183 631.117 504.365C642.691 480.474 667.172 464 695.5 464C704.107 464 712.358 465.521 720 468.308V56C720 25.0721 694.928 0 664 0H56Z" fill="#0A103F"/>
<g style="mix-blend-mode:multiply">
<path d="M0 56C0 25.0721 25.0721 0 56 0H664C694.928 0 720 25.0721 720 56V129H0V56Z" fill="black" fill-opacity="0.5"/>
</g>
<circle cx="65.5" cy="64.5" r="37.5" fill="#F56565"/>
<circle cx="169.5" cy="64.5" r="37.5" fill="#FAF089"/>
<circle cx="273.5" cy="64.5" r="37.5" fill="#68D391"/>
<line x1="264" y1="257" x2="264" y2="557" stroke="#E5E5E5" stroke-width="46"/>
<line x1="359.263" y1="288.737" x2="493.136" y2="422.609" stroke="#E5E5E5" stroke-width="46"/>
<line x1="358.864" y1="524.272" x2="492.737" y2="390.399" stroke="#E5E5E5" stroke-width="46"/>
</svg>
